<svg width="76" height="76" viewBox="0 0 76 76" fill="none" xmlns="http://www.w3.org/2000/svg">
<circle cx="38" cy="38" r="36" stroke="#292929" stroke-width="4"/>
<path d="M31.9766 52H26.4883V31.3164C24.4831 33.1914 22.1198 34.5781 19.3984 35.4766V30.4961C20.8307 30.0273 22.3867 29.1419 24.0664 27.8398C25.7461 26.5247 26.8984 24.9948 27.5234 23.25H31.9766V52ZM58.7344 46.9023V52H39.4961C39.7044 50.0729 40.3294 48.25 41.3711 46.5312C42.4128 44.7995 44.4701 42.5078 47.543 39.6562C50.0169 37.3516 51.5339 35.7891 52.0938 34.9688C52.849 33.8359 53.2266 32.7161 53.2266 31.6094C53.2266 30.3854 52.8945 29.4479 52.2305 28.7969C51.5794 28.1328 50.6745 27.8008 49.5156 27.8008C48.3698 27.8008 47.4583 28.1458 46.7812 28.8359C46.1042 29.526 45.7135 30.6719 45.6094 32.2734L40.1406 31.7266C40.4661 28.7057 41.4883 26.5378 43.207 25.2227C44.9258 23.9076 47.0742 23.25 49.6523 23.25C52.4779 23.25 54.6979 24.0117 56.3125 25.5352C57.9271 27.0586 58.7344 28.9531 58.7344 31.2188C58.7344 32.5078 58.5 33.7383 58.0312 34.9102C57.5755 36.069 56.8464 37.2865 55.8438 38.5625C55.1797 39.4089 53.9818 40.6263 52.25 42.2148C50.5182 43.8034 49.418 44.8581 48.9492 45.3789C48.4935 45.8997 48.1224 46.4076 47.8359 46.9023H58.7344Z" fill="black"/>
</svg>
