<svg width="76" height="76" viewBox="0 0 76 76" fill="none" xmlns="http://www.w3.org/2000/svg">
<circle cx="38" cy="38" r="35" fill="white" stroke="#FF8340" stroke-width="6"/>
<path d="M47.293 30.3789L41.9805 30.9648C41.8503 29.8711 41.5117 29.0638 40.9648 28.543C40.418 28.0221 39.7083 27.7617 38.8359 27.7617C37.6771 27.7617 36.694 28.2826 35.8867 29.3242C35.0924 30.3659 34.5911 32.5339 34.3828 35.8281C35.75 34.2135 37.4492 33.4062 39.4805 33.4062C41.7721 33.4062 43.7318 34.2786 45.3594 36.0234C47 37.7682 47.8203 40.0208 47.8203 42.7812C47.8203 45.7109 46.9609 48.0612 45.2422 49.832C43.5234 51.6029 41.3164 52.4883 38.6211 52.4883C35.7305 52.4883 33.3542 51.3685 31.4922 49.1289C29.6302 46.8763 28.6992 43.1914 28.6992 38.0742C28.6992 32.8268 29.6693 29.0443 31.6094 26.7266C33.5495 24.4089 36.069 23.25 39.168 23.25C41.3424 23.25 43.1393 23.862 44.5586 25.0859C45.9909 26.2969 46.9023 28.0612 47.293 30.3789ZM34.8516 42.3516C34.8516 44.1354 35.2617 45.5156 36.082 46.4922C36.9023 47.4557 37.8398 47.9375 38.8945 47.9375C39.9102 47.9375 40.7565 47.5404 41.4336 46.7461C42.1107 45.9518 42.4492 44.6497 42.4492 42.8398C42.4492 40.9779 42.0846 39.6172 41.3555 38.7578C40.6263 37.8854 39.7148 37.4492 38.6211 37.4492C37.5664 37.4492 36.6745 37.8659 35.9453 38.6992C35.2161 39.5195 34.8516 40.737 34.8516 42.3516Z" fill="#FF8340"/>
</svg>
