<svg width="76" height="76" viewBox="0 0 76 76" fill="none" xmlns="http://www.w3.org/2000/svg">
<circle cx="38" cy="38" r="36" stroke="#292929" stroke-width="4"/>
<path d="M28.5039 44.4023L33.8164 43.7578C33.9857 45.112 34.4414 46.1471 35.1836 46.8633C35.9258 47.5794 36.8242 47.9375 37.8789 47.9375C39.0117 47.9375 39.9622 47.5078 40.7305 46.6484C41.5117 45.7891 41.9023 44.6302 41.9023 43.1719C41.9023 41.7917 41.5312 40.6979 40.7891 39.8906C40.0469 39.0833 39.1419 38.6797 38.0742 38.6797C37.3711 38.6797 36.5312 38.8164 35.5547 39.0898L36.1602 34.6172C37.6445 34.6562 38.7773 34.3372 39.5586 33.6602C40.3398 32.9701 40.7305 32.0586 40.7305 30.9258C40.7305 29.9622 40.444 29.194 39.8711 28.6211C39.2982 28.0482 38.5365 27.7617 37.5859 27.7617C36.6484 27.7617 35.8477 28.0872 35.1836 28.7383C34.5195 29.3893 34.1159 30.3398 33.9727 31.5898L28.9141 30.7305C29.2656 28.9987 29.793 27.6185 30.4961 26.5898C31.2122 25.5482 32.2018 24.7344 33.4648 24.1484C34.7409 23.5495 36.1667 23.25 37.7422 23.25C40.4375 23.25 42.599 24.1094 44.2266 25.8281C45.5677 27.2344 46.2383 28.8229 46.2383 30.5938C46.2383 33.1068 44.8646 35.112 42.1172 36.6094C43.7578 36.9609 45.0664 37.7487 46.043 38.9727C47.0326 40.1966 47.5273 41.6745 47.5273 43.4062C47.5273 45.9193 46.6094 48.0612 44.7734 49.832C42.9375 51.6029 40.6523 52.4883 37.918 52.4883C35.3268 52.4883 33.1784 51.7461 31.4727 50.2617C29.7669 48.7643 28.7773 46.8112 28.5039 44.4023Z" fill="black"/>
</svg>
